#!OML:ASF H:\ManfredETheater\Project 1\Capture day 1\Session 1\subject.ASF
:FULLY-SPECIFIED
:DEGREES
139
root 1.19458 16.803 -15.1195 -188.916 -20.6946 -177.916
lowerback 14.4792 0.0584886 -0.5044
upperback 2.93778 -0.213758 1.68511
thorax -5.0001 -0.2227 2.11106
lowerneck -11.2876 -0.650686 -4.22936
upperneck 15.6651 -0.220664 -1.0188
head 6.64456 -0.557941 0.335528
rclavicle -1.00386e-014 -1.39149e-014
rhumerus -71.7603 -2.0499 -34.6378
rradius 42.9272
rwrist -7.15534
rhand -25.1026 4.11249
rfingers 7.12502
rthumb 1.41245 -25.8626
lclavicle -1.00386e-014 -1.39149e-014
lhumerus -68.8406 -4.81526 32.4169
lradius 49.2467
lwrist 0.581725
lhand -26.2556 -10.4506
lfingers 7.12502
lthumb 0.298924 19.529
rfemur -23.6728 0.558174 17.2125
rtibia 52.6711
rfoot -13.3546 -3.82831
rtoes -31.7607
lfemur -32.1027 -0.726796 -16.2066
ltibia 55.9017
lfoot -9.79046 -6.41266
ltoes -2.97467
140
root 1.08154 16.5134 -15.3984 -188.619 -20.6054 -177.551
lowerback 14.8773 0.168885 -0.353376
upperback 2.59347 -0.00569423 1.92226
thorax -5.59023 -0.107212 2.24472
lowerneck -11.0149 -0.645436 -4.05041
upperneck 14.8061 -0.191285 -1.34587
head 6.3223 -0.530141 0.208111
rclavicle 1.12438e-014 1.19271e-014
rhumerus -70.6111 -5.13078 -36.1259
rradius 41.9548
rwrist -7.83437
rhand -25.4869 4.0391
rfingers 7.12502
rthumb 1.0413 -25.9381
lclavicle 1.12438e-014 1.19271e-014
lhumerus -68.1859 -1.64615 34.3784
lradius 48.2079
lwrist 0.0800197
lhand -26.4933 -10.3635
lfingers 7.12502
lthumb 0.0693206 19.6163
rfemur -24.3443 0.216764 17.6919
rtibia 55.796
rfoot -17.3552 -5.64016
rtoes -31.9241
lfemur -33.5186 -0.967444 -16.1465
ltibia 59.6696
lfoot -13.5775 -4.8867
ltoes -2.13196
141
root 0.972715 16.2563 -15.658 -188.316 -20.4349 -177.216
lowerback 15.3934 0.322444 -0.221657
upperback 2.30167 0.252402 2.16329
thorax -6.19456 0.0285339 2.38255
lowerneck -10.7357 -0.664818 -3.9075
upperneck 13.9717 -0.202501 -1.63966
head 6.00963 -0.522413 0.0945879
rclavicle 4.68883e-014 3.57812e-015
rhumerus -69.022 -8.48462 -37.783
rradius 40.8432
rwrist -8.68455
rhand -25.9304 3.94188
rfingers 7.12502
rthumb 0.613007 -26.037
lclavicle 4.68883e-014 3.57812e-015
lhumerus -67.0376 1.98331 36.4355
lradius 46.7012
lwrist -0.389191
lhand -26.7088 -10.0718
lfingers 7.12502
lthumb -0.138792 19.9079
rfemur -25.2078 0.0479598 18.1291
rtibia 58.9306
rfoot -20.4411 -7.35914
rtoes -31.534
lfemur -35.0838 -1.21273 -15.9808
ltibia 63.6338
lfoot -16.6855 -3.63836
ltoes -1.4835
142
root 0.86773 16.0323 -15.9026 -188.075 -20.2068 -176.95
lowerback 16.0193 0.515766 -0.145833
upperback 2.09248 0.546422 2.3771
thorax -6.77624 0.177542 2.51298
lowerneck -10.4708 -0.716686 -3.78689
upperneck 13.2221 -0.271323 -1.84879
head 5.72846 -0.539933 0.00736017
rclavicle 2.02015e-014 2.18663e-014
rhumerus -66.9947 -11.982 -39.7617
rradius 39.6746
rwrist -9.56373
rhand -26.3873 3.83213
rfingers 7.12502
rthumb 0.171667 -26.1475
lclavicle 2.02015e-014 2.18663e-014
lhumerus -65.4227 5.94255 38.5783
lradius 44.7988
lwrist -0.679116
lhand -26.7974 -9.69447
lfingers 7.12502
lthumb -0.224458 20.2852
rfemur -25.9886 -0.0343215 18.4887
rtibia 61.8835
rfoot -23.0576 -9.04239
rtoes -32.191
lfemur -36.5911 -1.37463 -15.7683
ltibia 67.506
lfoot -19.0419 -2.85238
ltoes -2.60888
143
root 0.764519 15.8425 -16.1363 -187.932 -19.9125 -176.754
lowerback 16.7082 0.745134 -0.10017
upperback 1.97756 0.872808 2.54028
thorax -7.29565 0.337304 2.59469
lowerneck -10.2464 -0.802697 -3.67368
upperneck 12.6075 -0.401704 -1.93646
head 5.49812 -0.582846 -0.0451038
rclavicle -2.18663e-014 -9.14409e-015
rhumerus -64.529 -15.4012 -42.2793
rradius 38.5723
rwrist -10.3081
rhand -26.7905 3.76662
rfingers 7.12502
rthumb -0.217773 -26.213
lclavicle -2.18663e-014 -9.14409e-015
lhumerus -63.4185 9.97436 40.9259
lradius 42.7049
lwrist -0.492552
lhand -26.7644 -9.28188
lfingers 7.12502
lthumb -0.192523 20.6978
rfemur -26.5607 -0.0216639 18.757
rtibia 64.5418
rfoot -25.1716 -10.4688
rtoes -33.0585
lfemur -37.8392 -1.38503 -15.5207
ltibia 71.0837
lfoot -20.7543 -2.6851
ltoes -3.55453
144
root 0.661987 15.689 -16.3626 -187.88 -19.5827 -176.623
lowerback 17.3922 0.990979 -0.0800326
upperback 1.95479 1.20525 2.65083
thorax -7.71438 0.4952 2.62716
lowerneck -10.1004 -0.914666 -3.56511
upperneck 12.1437 -0.57766 -1.89696
head 5.32922 -0.643702 -0.0607461
rclavicle 1.08487e-013 3.45885e-014
rhumerus -61.5689 -18.3786 -45.6303
rradius 37.7447
rwrist -10.9037
rhand -27.0737 3.68598
rfingers 7.12502
rthumb -0.491244 -26.2932
lclavicle 1.08487e-013 3.45885e-014
lhumerus -61.1031 13.8063 43.6236
lradius 40.6436
lwrist 0.275352
lhand -26.566 -8.98513
lfingers 7.12502
lthumb -0.000908519 20.9946
rfemur -26.8297 0.0454959 18.928
rtibia 66.8179
rfoot -26.9141 -11.5078
rtoes -33.539
lfemur -38.7382 -1.1856 -15.2859
ltibia 74.2113
lfoot -21.9354 -2.98926
ltoes -4.7665
145
root 0.558396 15.5693 -16.5848 -187.871 -19.2388 -176.553
lowerback 17.9935 1.23074 -0.0781428
upperback 1.99109 1.51744 2.70571
thorax -8.0221 0.640321 2.60938
lowerneck -10.0156 -1.02954 -3.44099
upperneck 11.8111 -0.768024 -1.75152
head 5.21205 -0.70766 -0.0473569
rclavicle 5.05907e-014 -1.59028e-015
rhumerus -58.0522 -20.4621 -50.0359
rradius 37.3237
rwrist -11.3231
rhand -27.0703 3.54544
rfingers 7.12502
rthumb -0.487989 -26.4337
lclavicle 5.05907e-014 -1.59028e-015
lhumerus -58.5537 17.0604 46.8714
lradius 38.8731
lwrist 1.6159
lhand -26.2032 -8.88585
lfingers 7.12502
lthumb 0.349521 21.0936
rfemur -26.7905 0.112258 18.9985
rtibia 68.6541
rfoot -28.3578 -12.1996
rtoes -33.8982
lfemur -39.2576 -0.764118 -15.1013
ltibia 76.8381
lfoot -22.8036 -3.54691
ltoes -6.22253
146
root 0.451529 15.4804 -16.8052 -187.892 -18.9145 -176.532
lowerback 18.5006 1.43797 -0.0752015
upperback 2.06286 1.77999 2.71205
thorax -8.23503 0.75924 2.54684
lowerneck -10.0151 -1.12452 -3.28595
upperneck 11.6136 -0.937429 -1.54864
head 5.15122 -0.760418 -0.0204751
rclavicle -1.64246e-014 -2.34566e-014
rhumerus -54 -21.1264 -55.5856
rradius 37.4995
rwrist -11.6825
rhand -27.1705 3.20582
rfingers 7.12502
rthumb -0.584789 -26.7731
lclavicle -1.64246e-014 -2.34566e-014
lhumerus -55.8032 19.2943 50.9236
lradius 37.6588
lwrist 3.43929
lhand -25.7906 -8.91451
lfingers 7.12502
lthumb 0.748034 21.0639
rfemur -26.4356 0.101125 18.9749
rtibia 70.0441
rfoot -29.6759 -12.6539
rtoes -34.1062
lfemur -39.3848 -0.177157 -14.9901
ltibia 78.9586
lfoot -23.541 -4.1787
ltoes -7.29255
147
root 0.340026 15.4185 -17.0248 -187.865 -18.5975 -176.482
lowerback 18.8505 1.59283 -0.0114046
upperback 2.12751 1.98574 2.70485
thorax -8.36339 0.849315 2.44761
lowerneck -10.124 -1.17807 -3.10736
upperneck 11.5299 -1.04921 -1.34386
head 5.1437 -0.787421 0.00616984
rclavicle -4.19187e-014 3.18055e-015
rhumerus -49.638 -19.9548 -62.0266
rradius 38.454
rwrist -11.9595
rhand -27.2657 2.69254
rfingers 7.12502
rthumb -0.676758 -27.2861
lclavicle -4.19187e-014 3.18055e-015
lhumerus -52.8974 20.3132 55.7595
lradius 37.0974
lwrist 5.21649
lhand -25.3271 -9.15017
lfingers 7.12502
lthumb 1.19565 20.8262
rfemur -25.8972 0.0257496 18.9314
rtibia 71.0425
rfoot -30.827 -12.9971
rtoes -34.3055
lfemur -39.3006 0.5404 -14.8796
ltibia 80.6619
lfoot -24.1665 -4.86231
ltoes -8.18976
148
root 0.224648 15.3767 -17.2432 -187.641 -18.3176 -176.449
lowerback 18.9843 1.69796 0.0693644
upperback 2.13941 2.13631 2.67733
thorax -8.42622 0.916449 2.33128
lowerneck -10.3924 -1.1961 -2.92668
upperneck 11.5422 -1.10363 -1.1645
head 5.19242 -0.79041 0.0272597
rclavicle -1.37658e-014 -1.90833e-014
rhumerus -45.4021 -16.8995 -68.7368
rradius 40.2933
rwrist -11.9825
rhand -27.3989 2.17241
rfingers 7.12502
rthumb -0.805364 -27.8058
lclavicle -1.37658e-014 -1.90833e-014
lhumerus -49.8924 19.9765 61.261
lradius 37.2718
lwrist 6.51217
lhand -24.9282 -9.51738
lfingers 7.12502
lthumb 1.58088 20.4565
rfemur -25.437 -0.123886 18.8196
rtibia 71.778
rfoot -31.8006 -13.2151
rtoes -34.6358
lfemur -39.2455 1.31941 -14.8313
ltibia 82.0436
lfoot -24.6422 -5.54331
ltoes -8.84002
149
root 0.106656 15.3485 -17.4592 -187.255 -18.1104 -176.403
lowerback 18.9955 1.74814 0.178124
upperback 2.08628 2.22901 2.64767
thorax -8.4888 0.959044 2.21236
lowerneck -10.7772 -1.18231 -2.75629
upperneck 11.5906 -1.10443 -1.03234
head 5.27144 -0.771593 0.0384516
rclavicle -4.96962e-017 -9.54166e-015
rhumerus -41.7509 -12.2706 -75.0163
rradius 43.1025
rwrist -11.4328
rhand -27.596 1.84115
rfingers 7.12502
rthumb -0.995706 -28.1363
lclavicle -4.96962e-017 -9.54166e-015
lhumerus -46.9776 18.3149 67.0916
lradius 38.241
lwrist 6.91548
lhand -24.6448 -9.86124
lfingers 7.12502
lthumb 1.85462 20.1104
rfemur -25.111 -0.362625 18.673
rtibia 72.3782
rfoot -32.5843 -13.2555
rtoes -35.0399
lfemur -39.2575 2.06493 -14.8209
ltibia 83.1918
lfoot -25.0373 -6.17496
ltoes -9.27662
150
root -0.0133231 15.3296 -17.673 -186.741 -17.9713 -176.309
lowerback 18.9351 1.75217 0.350601
upperback 1.96052 2.28365 2.62814
thorax -8.58758 0.984924 2.07849
lowerneck -11.2117 -1.15138 -2.62098
upperneck 11.6278 -1.0723 -0.934147
head 5.35524 -0.740394 0.0471482
rclavicle 1.07841e-014 8.74653e-015
rhumerus -38.9268 -6.67705 -80.3705
rradius 46.8256
rwrist -10.026
rhand -27.8963 1.92271
rfingers 7.12502
rthumb -1.28572 -28.0532
lclavicle 1.07841e-014 8.74653e-015
lhumerus -44.3229 15.7001 72.7414
lradius 39.8827
lwrist 6.06625
lhand -24.4826 -10.2613
lfingers 7.12502
lthumb 2.01125 19.7089
rfemur -24.9507 -0.665502 18.5459
rtibia 72.9445
rfoot -33.1444 -13.1773
rtoes -35.5045
lfemur -39.3526 2.73215 -14.8031
ltibia 84.1727
lfoot -25.3655 -6.74192
ltoes -9.63443
151
root -0.134975 15.3182 -17.8845 -186.14 -17.916 -176.156
lowerback 18.8545 1.71849 0.610526
upperback 1.75928 2.31564 2.61705
thorax -8.75374 0.999447 1.90975
lowerneck -11.6362 -1.12346 -2.53769
upperneck 11.6264 -1.03687 -0.84473
head 5.42568 -0.709931 0.0622267
rclavicle 6.5102e-014 -1.90833e-014
rhumerus -36.91 -0.846661 -84.589
rradius 51.3289
rwrist -7.62983
rhand -28.3361 2.44341
rfingers 7.12502
rthumb -1.71053 -27.5295
lclavicle 6.5102e-014 -1.90833e-014
lhumerus -42.0252 12.4938 77.872
lradius 42.109
lwrist 4.1489
lhand -24.4332 -10.7504
lfingers 7.12502
lthumb 2.05897 19.2194
rfemur -24.9458 -1.03785 18.4593
rtibia 73.5425
rfoot -33.4464 -12.9999
rtoes -36.0042
lfemur -39.509 3.26495 -14.7611
ltibia 85.0106
lfoot -25.6483 -7.26215
ltoes -9.96801
